<svg width="970" height="304" viewBox="0 0 970 304" fill="none" xmlns="http://www.w3.org/2000/svg">
<g clip-path="url(#clip0_1419_9463)">
<rect x="2" y="2" width="966" height="300" fill="#201313"/>
<g clip-path="url(#clip1_1419_9463)">
<path d="M123.237 114.393C134.146 114.393 144.026 118.338 150.116 124.274L154.931 117.31C147.325 110.396 135.949 106.002 123.237 106.002C110.491 106.002 99.0884 110.416 91.4827 117.362L96.2927 124.337C102.378 118.365 112.292 114.393 123.237 114.393Z" fill="#F74239"/>
<path d="M123.754 96.5989C135.676 96.5989 146.794 100.097 155.059 106.444C156.739 107.736 158.253 109.108 159.591 110.549L164.412 103.558C155.026 94.2234 140.306 88.2103 123.756 88.2103C106.805 88.2103 91.7774 94.5147 82.4314 104.24L87.2773 111.265C88.838 109.49 90.5704 107.875 92.4488 106.444C100.717 100.097 111.835 96.5989 123.756 96.5989H123.754Z" fill="#F74239"/>
<path d="M123.236 79.5327C142.155 79.5327 158.878 86.5304 168.819 97.168L173.604 90.2448C162.015 78.6295 143.763 71.1418 123.236 71.1418C102.674 71.1418 84.3996 78.6521 72.8103 90.2968L77.5933 97.229C87.5254 86.5575 104.28 79.5327 123.236 79.5327Z" fill="#F74239"/>
<path fill-rule="evenodd" clip-rule="evenodd" d="M77.3315 140.523C77.3315 137.038 80.1577 134.213 83.644 134.213H162.77C166.257 134.213 169.083 137.038 169.083 140.523V192.821C169.083 196.306 166.257 199.131 162.77 199.131H83.644C80.1577 199.131 77.3315 196.306 77.3315 192.821V140.523ZM143.331 172.102C137.673 172.073 133.108 167.441 133.13 161.751C133.13 155.991 137.695 151.374 143.331 151.374C149.008 151.398 153.593 156.042 153.576 161.751C153.571 167.447 148.995 172.071 143.331 172.102ZM92.7746 161.751C92.7526 167.441 97.3177 172.073 102.976 172.102C108.64 172.071 113.216 167.447 113.221 161.751C113.238 156.042 108.653 151.398 102.976 151.374C97.3397 151.374 92.7746 155.991 92.7746 161.751Z" fill="#F74239"/>
<path d="M102.988 166.654C100.305 166.64 98.1396 164.443 98.1501 161.744C98.1501 159.012 100.315 156.823 102.988 156.823C105.681 156.834 107.856 159.037 107.847 161.744C107.845 164.446 105.675 166.639 102.988 166.654Z" fill="#F74239"/>
<path d="M143.343 166.654C140.66 166.64 138.495 164.443 138.505 161.744C138.505 159.012 140.67 156.823 143.343 156.823C146.036 156.834 148.21 159.037 148.202 161.744C148.2 164.446 146.03 166.639 143.343 166.654Z" fill="#F74239"/>
<path d="M288.232 196.504C282.524 198.531 276.035 199.549 272.125 199.803C267.918 200.083 264.466 198.938 261.828 197.216C259.165 195.494 257.214 193.264 255.967 190.575C254.703 187.886 254.067 185.07 254.067 182.153V144.824H244.508V131.083H254.067V118.81L270.776 106.656V131.075H285.611V144.815H270.776V175.274C270.776 178.7 270.98 181.16 271.387 182.653C271.794 184.146 272.702 185.087 274.152 185.494C275.594 185.851 277.35 185.927 280.666 185.189L284.822 183.951C284.822 183.951 287.078 191.839 288.223 196.504H288.232Z" fill="#F74239"/>
<path d="M355.807 160.999V198.455H339.098V162.195C339.098 155.91 338.105 151.262 336.078 148.251C334.051 145.257 330.751 143.738 326.163 143.738C322.261 143.738 319.063 144.654 316.578 146.478C315.34 147.369 314.195 148.429 313.101 149.65V198.463H296.391V103H313.101V135.511C314.848 134.442 316.655 133.433 318.555 132.491C321.879 130.82 325.857 129.981 330.472 129.981C336.409 129.981 341.226 131.295 344.975 133.933C348.707 136.546 351.439 140.193 353.194 144.841C354.942 149.506 355.807 154.883 355.807 160.999Z" fill="#F74239"/>
<path d="M431.914 147.377C429.2 142.025 425.273 137.767 420.099 134.544C414.925 131.321 408.691 129.726 401.363 129.726C394.034 129.726 387.792 131.321 382.643 134.544C377.469 137.767 373.542 142.025 370.828 147.377C368.088 152.729 366.748 158.565 366.748 164.9C366.748 171.236 368.088 176.97 370.828 182.271C373.542 187.572 377.469 191.83 382.643 195.003C387.792 198.2 394.051 199.795 401.363 199.795C408.674 199.795 414.934 198.2 420.099 195.003C425.273 191.83 429.2 187.572 431.914 182.271C434.629 176.97 435.994 171.186 435.994 164.9C435.994 158.615 434.629 152.729 431.914 147.377ZM414.34 180.168C411.295 184.095 406.986 186.054 401.354 186.054C395.722 186.054 391.49 184.103 388.419 180.168C385.374 176.241 383.856 171.143 383.856 164.9C383.856 158.658 385.374 153.416 388.419 149.43C391.49 145.452 395.799 143.467 401.354 143.467C406.91 143.467 411.295 145.443 414.34 149.43C417.385 153.408 418.878 158.556 418.878 164.9C418.878 171.245 417.385 176.232 414.34 180.168Z" fill="#F74239"/>
<path d="M505.503 131.075V198.455H489.879L489.599 194.4C488.327 195.367 486.809 196.3 485.062 197.191C481.559 198.938 478.089 199.803 474.637 199.803C467.64 199.803 462.033 198.412 457.877 195.622C453.696 192.857 450.676 189.031 448.827 184.137C447.004 179.269 446.087 173.662 446.087 167.326V131.092H462.771V167.326C462.771 173.586 463.84 178.208 465.918 181.245C467.996 184.29 471.423 185.783 476.139 185.783C479.888 185.783 483.034 184.892 485.52 183.094C486.707 182.229 487.827 181.22 488.794 180.024V131.083H505.503V131.075Z" fill="#F74239"/>
<path d="M644.893 160.999V198.455H628.184V162.195C628.184 155.91 627.166 151.262 625.139 148.251C623.137 145.257 619.813 143.738 615.249 143.738C611.348 143.738 608.125 144.654 605.639 146.478C604.401 147.394 603.231 148.454 602.162 149.676V198.463H585.453V103H602.162V135.511C603.884 134.442 605.716 133.433 607.641 132.491C610.966 130.82 614.919 129.981 619.558 129.981C625.495 129.981 630.313 131.295 634.037 133.933C637.769 136.546 640.5 140.193 642.256 144.841C644.003 149.506 644.893 154.883 644.893 160.999Z" fill="#F74239"/>
<path d="M768.092 147.504C765.785 142.203 762.384 137.971 757.897 134.773C753.41 131.575 747.854 129.981 741.239 129.981C736.523 129.981 732.341 130.846 728.685 132.542C726.607 133.535 724.631 134.722 722.774 136.122V103H706.09V198.455H721.713L722.019 193.993C723.919 195.291 725.92 196.377 727.981 197.318C731.705 198.964 736.124 199.803 741.247 199.803C747.863 199.803 753.418 198.209 757.905 195.011C762.392 191.839 765.794 187.581 768.101 182.28C770.433 176.979 771.578 171.194 771.578 164.909C771.578 158.624 770.433 152.814 768.101 147.513L768.092 147.504ZM752.647 175.91C751.425 179.082 749.653 181.567 747.32 183.365C744.962 185.164 742.146 186.054 738.821 186.054C734.92 186.054 731.722 185.164 729.262 183.365C726.777 181.567 724.953 179.082 723.758 175.91C722.562 172.738 721.985 169.065 721.985 164.9C721.985 160.736 722.57 157.038 723.758 153.866C724.945 150.693 726.777 148.234 729.262 146.436C731.722 144.637 734.92 143.721 738.821 143.721C742.146 143.721 744.962 144.637 747.32 146.436C749.653 148.234 751.425 150.693 752.647 153.866C753.834 157.038 754.445 160.71 754.445 164.9C754.445 169.091 753.834 172.738 752.647 175.91Z" fill="#F74239"/>
<path d="M844.301 147.377C841.587 142.025 837.635 137.767 832.486 134.544C827.312 131.321 821.078 129.726 813.75 129.726C806.422 129.726 800.179 131.321 795.039 134.544C789.865 137.767 785.912 142.025 783.198 147.377C780.484 152.729 779.118 158.565 779.118 164.9C779.118 171.236 780.484 176.97 783.198 182.271C785.912 187.572 789.865 191.83 795.039 195.003C800.187 198.2 806.422 199.795 813.75 199.795C821.078 199.795 827.321 198.2 832.486 195.003C837.635 191.83 841.587 187.572 844.301 182.271C847.016 176.97 848.381 171.186 848.381 164.9C848.381 158.615 847.016 152.729 844.301 147.377ZM826.727 180.168C823.682 184.095 819.373 186.054 813.741 186.054C808.109 186.054 803.877 184.103 800.807 180.168C797.762 176.241 796.218 171.143 796.218 164.9C796.218 158.658 797.762 153.416 800.807 149.43C803.877 145.452 808.16 143.467 813.741 143.467C819.322 143.467 823.682 145.443 826.727 149.43C829.747 153.408 831.265 158.556 831.265 164.9C831.265 171.245 829.747 176.232 826.727 180.168Z" fill="#F74239"/>
<path d="M697.354 196.504C691.645 198.531 685.157 199.549 681.247 199.803C677.04 200.083 673.587 198.938 670.95 197.216C668.286 195.494 666.335 193.264 665.089 190.575C663.825 187.886 663.189 185.07 663.189 182.153V144.824H653.63V131.083H663.189V118.81L679.898 106.664V131.083H694.733V144.824H679.898V175.282C679.898 178.709 680.101 181.169 680.509 182.661C680.916 184.154 681.823 185.096 683.274 185.503C684.716 185.859 686.471 185.935 689.788 185.198L693.944 183.959C693.944 183.959 696.2 191.847 697.345 196.512L697.354 196.504Z" fill="#F74239"/>
<path d="M897.508 196.504C891.8 198.531 885.311 199.549 881.401 199.803C877.194 200.083 873.742 198.938 871.104 197.216C868.441 195.494 866.49 193.264 865.243 190.575C863.979 187.886 863.343 185.07 863.343 182.153V144.824H853.784V131.083H863.343V118.81L880.052 106.664V131.083H894.887V144.824H880.052V175.282C880.052 178.709 880.256 181.169 880.663 182.661C881.07 184.154 881.978 185.096 883.428 185.503C884.87 185.859 886.626 185.935 889.942 185.198L894.098 183.959C894.098 183.959 896.355 191.847 897.5 196.512L897.508 196.504Z" fill="#F74239"/>
<path d="M555.732 191.406C551.915 191.16 540.448 190.702 540.448 190.702C536.165 190.702 533.272 187.386 533.272 183.959C533.272 182.543 534.383 180.965 535.741 179.659C538.981 181.135 542.653 181.974 546.64 181.974C559.761 181.974 572.654 172.492 572.654 155.833C572.654 148.293 568.718 139.913 561.678 134.722L569.914 128.556L562.255 118.335L547.072 129.709C546.742 129.701 546.411 129.692 546.08 129.692C526.962 129.692 520.567 145.723 520.567 155.833C520.567 161.228 522.254 166.478 525.265 170.838C520.991 174.358 517.844 180.295 517.649 185.817C517.479 190.38 518.87 194.952 522.466 197.242C518.98 200.838 514.977 205.596 514.977 211.356C514.977 226.92 531.008 233.061 547.802 233.061C564.596 233.061 577.115 228.048 577.115 210.355C577.115 199.167 567.802 192.187 555.732 191.406ZM538.175 146.037C540.134 143.628 542.933 142.373 546.64 142.373C550.346 142.373 553.154 143.628 555.011 146.037C556.877 148.454 557.819 151.694 557.819 155.791C557.819 159.888 556.877 163.119 555.011 165.63C553.154 168.039 550.372 169.294 546.64 169.294C542.908 169.294 540.134 168.039 538.175 165.63C536.334 163.119 535.401 159.879 535.401 155.791C535.401 151.703 536.334 148.454 538.175 146.037ZM547.725 220.151C538.446 220.151 530.032 217.047 530.032 210.194C530.032 207.479 532.45 204.273 533.586 202.56C536.411 203.4 539.786 203.883 542.789 203.883C542.789 203.883 549.354 204.019 551.39 204.104C558.251 204.4 561.932 205.359 561.932 211.356C561.932 217.776 556.148 220.151 547.725 220.151Z" fill="#F74239"/>
</g>
<line opacity="0.4" x1="-58" y1="102.5" x2="1087" y2="102.5" stroke="white"/>
<line opacity="0.4" x1="-58" y1="232.5" x2="1087" y2="232.5" stroke="white"/>
<line opacity="0.4" x1="-58" y1="70.5" x2="1087" y2="70.5" stroke="white"/>
<line opacity="0.4" x1="-58" y1="199.5" x2="1087" y2="199.5" stroke="white"/>
<line opacity="0.4" x1="898.5" y1="-49" x2="898.5" y2="360" stroke="white"/>
<line opacity="0.4" x1="243.5" y1="-49" x2="243.5" y2="360" stroke="white"/>
<line opacity="0.4" x1="174.5" y1="-49" x2="174.5" y2="360" stroke="white"/>
<line opacity="0.4" x1="71.5" y1="-49" x2="71.5" y2="360" stroke="white"/>
<path opacity="0.2" d="M541.415 233V300.38H525.792L525.512 296.325C524.24 297.292 522.721 298.225 520.974 299.116C517.471 300.863 514.002 301.728 510.55 301.728C503.552 301.728 497.946 300.337 493.79 297.547C489.608 294.782 486.589 290.956 484.74 286.062C482.916 281.194 482 275.587 482 269.251V233.017H498.684V269.251C498.684 275.511 499.753 280.134 501.831 283.17C503.909 286.215 507.335 287.708 512.051 287.708C515.8 287.708 518.947 286.817 521.432 285.019C522.62 284.154 523.739 283.145 524.706 281.949V233.008H541.415V233Z" fill="#726863"/>
<path opacity="0.2" d="M70.7283 184.415L3.34852 184.415L3.34852 168.792L7.40284 168.512C6.43591 167.24 5.50291 165.721 4.61231 163.974C2.86505 160.471 1.99991 157.002 1.99991 153.55C1.99991 146.552 3.39093 140.946 6.18146 136.79C8.94654 132.608 12.7718 129.589 17.6659 127.74C22.5344 125.916 28.1409 125 34.4769 125L70.7113 125L70.7113 141.684L34.4769 141.684C28.2173 141.684 23.5947 142.752 20.5582 144.831C17.5132 146.909 16.0204 150.335 16.0204 155.051C16.0204 158.8 16.911 161.947 18.7091 164.432C19.5743 165.62 20.5836 166.739 21.7796 167.706L70.7198 167.706L70.7198 184.415L70.7283 184.415Z" fill="#726863"/>
<path opacity="0.2" d="M482 70.7285L482 3.34876L497.624 3.34876L497.903 7.40308C499.176 6.43615 500.694 5.50315 502.441 4.61255C505.944 2.86529 509.413 2.00015 512.865 2.00015C519.863 2.00015 525.469 3.39117 529.626 6.1817C533.807 8.94678 536.827 12.7721 538.676 17.6661C540.499 22.5347 541.415 28.1412 541.415 34.4771L541.415 70.7116L524.732 70.7116L524.732 34.4771C524.732 28.2175 523.663 23.5949 521.585 20.5584C519.507 17.5134 516.08 16.0206 511.364 16.0206C507.615 16.0206 504.468 16.9112 501.983 18.7094C500.796 19.5745 499.676 20.5839 498.709 21.7798L498.709 70.72L482 70.72L482 70.7285Z" fill="#726863"/>
<path opacity="0.2" d="M899 124.585L966.38 124.585L966.38 140.208L962.325 140.488C963.292 141.76 964.225 143.279 965.116 145.026C966.863 148.529 967.728 151.998 967.728 155.45C967.728 162.448 966.337 168.054 963.547 172.21C960.782 176.392 956.956 179.411 952.062 181.26C947.194 183.084 941.587 184 935.251 184L899.017 184L899.017 167.316L935.251 167.316C941.511 167.316 946.134 166.247 949.17 164.169C952.215 162.091 953.708 158.665 953.708 153.949C953.708 150.2 952.817 147.053 951.019 144.568C950.154 143.38 949.145 142.261 947.949 141.294L899.008 141.294L899.008 124.585L899 124.585Z" fill="#726863"/>
</g>
<rect x="1" y="1" width="968" height="302" stroke="white" stroke-width="2"/>
<defs>
<clipPath id="clip0_1419_9463">
<rect x="2" y="2" width="966" height="300" fill="white"/>
</clipPath>
<clipPath id="clip1_1419_9463">
<rect width="826" height="162" fill="white" transform="translate(72 71)"/>
</clipPath>
</defs>
</svg>
